<svg width="192" height="201" viewBox="0 0 192 201" fill="none" xmlns="http://www.w3.org/2000/svg">
<rect width="192" height="192" rx="40" fill="white"/>
<path d="M71.5082 152C69.8762 152 68.5322 151.472 67.4762 150.416C66.4202 149.36 65.8922 148.016 65.8922 146.384V45.152C65.8922 43.52 66.4202 42.176 67.4762 41.12C68.5322 40.064 69.8762 39.536 71.5082 39.536H98.4362C105.444 39.536 111.684 41.024 117.156 44C122.628 46.88 126.9 50.96 129.972 56.24C133.14 61.424 134.724 67.424 134.724 74.24C134.724 80.768 133.14 86.576 129.972 91.664C126.9 96.752 122.628 100.736 117.156 103.616C111.684 106.496 105.444 107.936 98.4362 107.936H77.1242V146.384C77.1242 148.016 76.5962 149.36 75.5402 150.416C74.4842 151.472 73.1402 152 71.5082 152ZM131.7 152C130.452 152 129.444 151.76 128.676 151.28C128.004 150.8 127.38 150.08 126.804 149.12L99.1562 105.056L110.388 102.176L136.164 143.36C137.604 145.664 137.844 147.68 136.884 149.408C136.02 151.136 134.292 152 131.7 152ZM77.1242 97.136H98.4362C103.332 97.136 107.652 96.176 111.396 94.256C115.236 92.24 118.26 89.504 120.468 86.048C122.676 82.592 123.78 78.656 123.78 74.24C123.78 69.536 122.676 65.408 120.468 61.856C118.26 58.208 115.236 55.376 111.396 53.36C107.652 51.344 103.332 50.336 98.4362 50.336H77.1242V97.136Z" fill="#3C6CAB"/>
</svg>
